<svg width="223" height="200" viewBox="0 0 223 200" fill="none" xmlns="http://www.w3.org/2000/svg">
<g opacity="0.5">
<path opacity="0.5" d="M210.484 65.5401H180.053V53.8962C180.053 50.6616 178.768 47.5595 176.481 45.2723C174.194 42.9851 171.092 41.7002 167.857 41.7002H28.5268C25.5923 41.7002 22.778 42.8659 20.7031 44.9409C18.6281 47.0158 17.4624 49.8301 17.4624 52.7645V65.5469H12.8809C9.46788 65.5457 6.19398 66.8996 3.77867 69.311C1.36336 71.7225 0.00425013 74.9942 0 78.4072V136.134C0.00247459 139.38 1.23116 142.506 3.44002 144.885C5.64888 147.263 8.67483 148.72 11.9119 148.962V162.02H24.9188V149.001H41.2977V162.13H54.3046V149.001H171.362V162.13H184.369V149.001H195.209V162.008H208.229V149.001H210.573C212.1 149.002 213.612 148.701 215.023 148.117C216.434 147.533 217.717 146.676 218.797 145.596C219.877 144.517 220.733 143.235 221.318 141.824C221.902 140.413 222.203 138.901 222.203 137.374V77.2619C222.203 75.7226 221.9 74.1984 221.312 72.7763C220.723 71.3542 219.86 70.0619 218.771 68.9734C217.683 67.8849 216.391 67.0215 214.969 66.4324C213.547 65.8433 212.023 65.5401 210.484 65.5401ZM177.762 116.484V126.238H129.272C129.797 125.298 130.072 124.239 130.071 123.162V116.484H177.762Z" fill="url(#paint0_linear)"/>
</g>
<path d="M28.0519 144.283H15.4316V159.753H28.0519V144.283Z" fill="#635DC9"/>
<path d="M181.532 144.283H169.318V159.753H181.532V144.283Z" fill="#635DC9"/>
<path d="M204.735 144.283H192.115V159.753H204.735V144.283Z" fill="#635DC9"/>
<path d="M56.5499 144.283H43.9297V159.753H56.5499V144.283Z" fill="#635DC9"/>
<path opacity="0.3" d="M28.0519 144.283H15.4316V159.753H28.0519V144.283Z" fill="black"/>
<path opacity="0.3" d="M181.532 144.283H169.318V159.753H181.532V144.283Z" fill="black"/>
<path opacity="0.3" d="M204.735 144.283H192.115V159.753H204.735V144.283Z" fill="black"/>
<path opacity="0.3" d="M56.5499 144.283H43.9297V159.753H56.5499V144.283Z" fill="black"/>
<path d="M175.424 66.9336H206.898C209.887 66.9336 212.754 68.12 214.868 70.2319C216.982 72.3438 218.17 75.2081 218.17 78.1947V135.961C218.17 138.924 216.992 141.766 214.894 143.861C212.797 145.956 209.953 147.133 206.987 147.133H175.424V66.9336Z" fill="#635DC9"/>
<path opacity="0.3" d="M175.424 66.9336H206.898C209.887 66.9336 212.754 68.12 214.868 70.2319C216.982 72.3438 218.17 75.2081 218.17 78.1947V135.961C218.17 138.924 216.992 141.766 214.894 143.861C212.797 145.956 209.953 147.133 206.987 147.133H175.424V66.9336Z" fill="black"/>
<path d="M31.7648 43.7285H91.9671V115.786H21.1309V54.3869C21.1315 51.5599 22.2521 48.8489 24.2463 46.8501C26.2404 44.8514 28.9449 43.7285 31.7648 43.7285Z" fill="#635DC9"/>
<path opacity="0.3" d="M32.1077 43.7285H91.9671V115.786H21.1309V54.7307C21.1309 53.2857 21.4148 51.8548 21.9665 50.5198C22.5181 49.1848 23.3267 47.9719 24.346 46.9502C25.3654 45.9285 26.5755 45.1181 27.9072 44.5653C29.239 44.0126 30.6663 43.7282 32.1077 43.7285Z" fill="black"/>
<path d="M47.8461 43.7285H106.217V115.786H35.3809V56.2229C35.3809 52.9092 36.6939 49.7312 39.0312 47.388C41.3684 45.0449 44.5385 43.7285 47.8438 43.7285H47.8461Z" fill="#635DC9"/>
<path d="M106.217 43.7285H165.746C168.853 43.7285 171.832 44.9666 174.029 47.1705C176.226 49.3744 177.46 52.3635 177.46 55.4802V115.786H106.217V43.7285Z" fill="#635DC9"/>
<path d="M194.965 66.9336H206.772C209.796 66.9354 212.695 68.1227 214.832 70.2343C216.969 72.346 218.17 75.2093 218.17 78.1947V135.961C218.17 138.924 216.978 141.766 214.856 143.861C212.734 145.956 209.856 147.133 206.856 147.133H194.965V66.9336Z" fill="#635DC9"/>
<path d="M194.966 125.149H51.2578V147.133H194.966V125.149Z" fill="#635DC9"/>
<path d="M84.1828 69.7139L68.4451 74.301C61.5158 76.3207 57.5357 83.5753 59.5555 90.5047L64.7689 108.391C66.7886 115.32 74.0432 119.3 80.9725 117.281L96.7103 112.694C103.64 110.674 107.62 103.419 105.6 96.4899L100.386 78.6035C98.3668 71.6742 91.1122 67.6941 84.1828 69.7139Z" fill="url(#paint1_linear)"/>
<path d="M83.3169 71.8513L68.6414 76.1288C62.1797 78.0123 58.4682 84.7773 60.3516 91.239L65.2131 107.918C67.0965 114.38 73.8616 118.091 80.3233 116.208L94.9988 111.93C101.46 110.047 105.172 103.282 103.289 96.8201L98.427 80.141C96.5436 73.6793 89.7786 69.9679 83.3169 71.8513Z" fill="#F55F44"/>
<path opacity="0.1" d="M83.3169 71.8513L68.6414 76.1288C62.1797 78.0123 58.4682 84.7773 60.3516 91.239L65.2131 107.918C67.0965 114.38 73.8616 118.091 80.3233 116.208L94.9988 111.93C101.46 110.047 105.172 103.282 103.289 96.8201L98.427 80.141C96.5436 73.6793 89.7786 69.9679 83.3169 71.8513Z" fill="black"/>
<path d="M84.0727 71.3191L69.3972 75.5966C62.9355 77.48 59.2241 84.2451 61.1075 90.7068L65.969 107.386C67.8524 113.848 74.6174 117.559 81.0791 115.676L95.7547 111.398C102.216 109.515 105.928 102.75 104.044 96.2878L99.1829 79.6088C97.2995 73.1471 90.5344 69.4357 84.0727 71.3191Z" fill="#F55F44"/>
<path d="M80.9339 85.7187C82.3485 84.7238 82.6887 82.7704 81.6938 81.3558C80.6988 79.9412 78.7455 79.601 77.3309 80.596C75.9163 81.5909 75.5761 83.5442 76.571 84.9588C77.566 86.3734 79.5193 86.7136 80.9339 85.7187Z" fill="url(#paint2_linear)"/>
<path d="M95.9163 94.3193C97.3309 93.3243 97.6711 91.371 96.6762 89.9564C95.6813 88.5418 93.7279 88.2016 92.3133 89.1965C90.8987 90.1915 90.5585 92.1448 91.5535 93.5594C92.5484 94.974 94.5017 95.3142 95.9163 94.3193Z" fill="url(#paint3_linear)"/>
<path d="M72.678 103.006C74.0927 102.011 74.4329 100.058 73.4379 98.6429C72.443 97.2283 70.4897 96.8881 69.075 97.8831C67.6604 98.878 67.3202 100.831 68.3152 102.246C69.3101 103.661 71.2634 104.001 72.678 103.006Z" fill="url(#paint4_linear)"/>
<path d="M86.805 112.209C88.2196 111.214 88.5598 109.261 87.5649 107.846C86.5699 106.431 84.6166 106.091 83.202 107.086C81.7874 108.081 81.4472 110.034 82.4421 111.449C83.4371 112.864 85.3904 113.204 86.805 112.209Z" fill="url(#paint5_linear)"/>
<path d="M80.3327 84.8637C81.2754 84.2007 81.5021 82.899 80.8391 81.9562C80.176 81.0135 78.8743 80.7868 77.9316 81.4498C76.9888 82.1129 76.7621 83.4146 77.4252 84.3573C78.0882 85.3001 79.39 85.5268 80.3327 84.8637Z" fill="#F99F8F"/>
<path d="M95.3151 93.4653C96.2578 92.8023 96.4846 91.5005 95.8215 90.5578C95.1585 89.6151 93.8567 89.3883 92.914 90.0514C91.9713 90.7144 91.7445 92.0162 92.4076 92.9589C93.0706 93.9016 94.3724 94.1284 95.3151 93.4653Z" fill="#F99F8F"/>
<path d="M72.0768 102.151C73.0196 101.488 73.2463 100.186 72.5832 99.2433C71.9202 98.3006 70.6184 98.0739 69.6757 98.7369C68.733 99.4 68.5063 100.702 69.1693 101.644C69.8324 102.587 71.1341 102.814 72.0768 102.151Z" fill="#F99F8F"/>
<path d="M86.2038 111.355C87.1465 110.692 87.3732 109.39 86.7102 108.447C86.0471 107.505 84.7454 107.278 83.8027 107.941C82.8599 108.604 82.6332 109.906 83.2963 110.849C83.9593 111.791 85.2611 112.018 86.2038 111.355Z" fill="#F99F8F"/>
<path d="M16.471 66.9336H62.6563V147.133H16.471C13.1727 147.133 10.0095 145.83 7.67698 143.51C5.34449 141.189 4.03381 138.043 4.0332 134.761V79.308C4.0332 76.0261 5.34361 72.8786 7.67616 70.558C10.0087 68.2373 13.1723 66.9336 16.471 66.9336Z" fill="#635DC9"/>
<path opacity="0.3" d="M16.5579 66.9336H51.0668C52.5895 66.9336 54.0973 67.2322 55.504 67.8122C56.9107 68.3923 58.1887 69.2424 59.265 70.3141C60.3413 71.3859 61.1948 72.6581 61.7767 74.0581C62.3586 75.4582 62.6575 76.9586 62.6563 78.4736V135.602C62.6563 138.66 61.4352 141.593 59.2618 143.756C57.0883 145.918 54.1405 147.133 51.0668 147.133H16.5579C13.2361 147.133 10.0504 145.82 7.70159 143.483C5.35276 141.146 4.0332 137.977 4.0332 134.672V79.3881C4.03503 76.0843 5.3554 72.9165 7.70403 70.581C10.0527 68.2455 13.2373 66.9336 16.5579 66.9336Z" fill="black"/>
<path opacity="0.1" d="M39.8574 66.9336H59.98C61.0134 66.9336 62.0045 67.343 62.7353 68.0719C63.4661 68.8007 63.8766 69.7892 63.8766 70.8199V143.247C63.8766 144.278 63.4661 145.266 62.7353 145.995C62.0045 146.724 61.0134 147.133 59.98 147.133H39.8574V66.9336Z" fill="black"/>
<path d="M38.6367 66.9336H58.7593C59.7927 66.9336 60.7838 67.343 61.5146 68.0719C62.2454 68.8007 62.6559 69.7892 62.6559 70.8199V143.247C62.6559 144.278 62.2454 145.266 61.5146 145.995C60.7838 146.724 59.7927 147.133 58.7593 147.133H38.6367V66.9336Z" fill="#635DC9"/>
<path d="M129.421 108.459H57.3633V128.407H129.421V108.459Z" fill="#635DC9"/>
<path d="M201.479 108.865H129.422V128.406H201.479V108.865Z" fill="#635DC9"/>
<path opacity="0.15" d="M123.324 108.459H63.4603C60.093 108.459 57.3633 111.203 57.3633 114.588V122.278C57.3633 125.663 60.093 128.407 63.4603 128.407H123.324C126.691 128.407 129.421 125.663 129.421 122.278V114.588C129.421 111.203 126.691 108.459 123.324 108.459Z" fill="white"/>
<path d="M137.767 72.226C140.128 72.226 142.041 70.3122 142.041 67.9514C142.041 65.5906 140.128 63.6768 137.767 63.6768C135.406 63.6768 133.492 65.5906 133.492 67.9514C133.492 70.3122 135.406 72.226 137.767 72.226Z" fill="#635DC9"/>
<path opacity="0.3" d="M137.767 72.226C140.128 72.226 142.041 70.3122 142.041 67.9514C142.041 65.5906 140.128 63.6768 137.767 63.6768C135.406 63.6768 133.492 65.5906 133.492 67.9514C133.492 70.3122 135.406 72.226 137.767 72.226Z" fill="black"/>
<path d="M73.0363 72.226C75.3971 72.226 77.3109 70.3122 77.3109 67.9514C77.3109 65.5906 75.3971 63.6768 73.0363 63.6768C70.6755 63.6768 68.7617 65.5906 68.7617 67.9514C68.7617 70.3122 70.6755 72.226 73.0363 72.226Z" fill="#635DC9"/>
<path opacity="0.15" d="M195.382 108.865H135.519C132.152 108.865 129.422 111.553 129.422 114.87V122.402C129.422 125.718 132.152 128.406 135.519 128.406H195.382C198.75 128.406 201.479 125.718 201.479 122.402V114.87C201.479 111.553 198.75 108.865 195.382 108.865Z" fill="white"/>
<g opacity="0.5">
<path opacity="0.5" d="M154.039 68.6046C153.561 65.9725 153.07 63.3107 151.978 60.8618C150.781 58.1717 148.906 55.8384 146.537 54.0904C146.185 53.8244 145.749 53.6943 145.309 53.7238C144.622 53.7834 144.411 54.2049 144.304 54.6401C144.29 54.6928 144.279 54.7432 144.269 54.7959C143.999 56.1314 144.18 57.4509 144.572 58.7521C145.06 60.3762 145.877 61.9591 146.558 63.5306C147.784 66.3464 148.596 69.3246 148.97 72.3729C149.02 72.776 149.059 73.1907 149.068 73.6053C149.075 73.8521 149.069 74.0991 149.05 74.3452C149.019 74.828 148.91 75.3024 148.725 75.7494C148.693 75.8227 148.658 75.8991 148.622 75.9785C148.585 76.0579 148.545 76.1282 148.503 76.1893C148.086 76.8765 147.435 77.3667 146.798 77.8501C146.162 78.3334 145.44 78.8488 144.679 79.11H144.705C144.351 79.2377 143.977 79.299 143.6 79.2909C142.425 79.2543 141.172 78.3082 139.99 78.5304L139.857 78.5602C138.648 78.8878 137.72 80.7891 137.711 81.9963C137.711 82.0925 137.711 82.1857 137.711 82.2758C137.711 82.3079 137.711 82.3399 137.722 82.372C137.734 82.4041 137.736 82.4934 137.745 82.5507C137.754 82.608 137.759 82.6217 137.768 82.6561C137.777 82.6904 137.789 82.7592 137.803 82.8095C137.816 82.8599 137.823 82.8806 137.835 82.9149C137.846 82.9493 137.864 83.0088 137.88 83.0547C137.897 83.1005 137.908 83.1234 137.922 83.1555C137.935 83.1875 137.958 83.2425 137.979 83.2837L138.029 83.3799C138.052 83.4189 138.073 83.4601 138.098 83.4991L138.158 83.5907L138.236 83.7006L138.302 83.7854L138.391 83.8862L138.465 83.9641L138.563 84.058L138.643 84.129L138.751 84.2161L138.836 84.2825L138.953 84.3627L139.04 84.4222L139.168 84.4978L139.257 84.5482L139.402 84.6192L139.486 84.6605C139.555 84.6925 139.626 84.7223 139.697 84.7498L139.8 84.7888L139.965 84.8483L140.084 84.885L140.219 84.9262L140.352 84.9606L140.48 84.9926L140.622 85.0224L140.746 85.0476L140.895 85.0728L141.014 85.0911L141.168 85.1118L141.282 85.1255L141.443 85.1392H141.555H141.72H141.825H141.997H142.357H142.544H142.611L142.812 85.1232H142.851C143.423 85.0735 143.986 84.9495 144.526 84.7544C146.237 84.1061 147.689 82.9218 149.034 81.6779C151.701 79.2154 154.22 76.1595 154.433 72.5355C154.516 71.2275 154.275 69.908 154.039 68.6046Z" fill="url(#paint6_linear)"/>
</g>
<path opacity="0.1" d="M142.856 67.748H121.279V73.8546H142.856V67.748Z" fill="black"/>
<path d="M142.856 67.748H121.279V73.4475H142.856V67.748Z" fill="#635DC9"/>
<path d="M133.695 68.5624C135.606 68.5624 137.155 67.0131 137.155 65.102C137.155 63.1909 135.606 61.6416 133.695 61.6416C131.784 61.6416 130.234 63.1909 130.234 65.102C130.234 67.0131 131.784 68.5624 133.695 68.5624Z" fill="#635DC9"/>
<path d="M127.336 70.1912C127.225 70.143 127.135 70.0813 127.073 70.0107C127.011 69.9402 126.979 69.8626 126.979 69.7841C126.979 69.7055 127.011 69.628 127.073 69.5574C127.135 69.4868 127.225 69.4251 127.336 69.377L127.386 69.4113C127.282 69.4552 127.197 69.5119 127.139 69.577C127.081 69.6422 127.051 69.7139 127.051 69.7866C127.051 69.8594 127.081 69.9311 127.139 69.9962C127.197 70.0613 127.282 70.1181 127.386 70.162L127.336 70.1912Z" fill="#CCA186"/>
<path d="M144.683 88.5491C146.264 87.9609 147.603 86.8867 148.848 85.7602C151.311 83.53 153.634 80.7638 153.833 77.4776C153.905 76.2784 153.685 75.0838 153.465 73.9006C153.023 71.5159 152.572 69.104 151.57 66.8875C150.465 64.4514 148.735 62.3385 146.548 60.7555C146.223 60.5139 145.819 60.3961 145.412 60.4239C144.718 60.4852 144.542 60.9531 144.449 61.4005C143.887 64.1258 145.43 66.7694 146.56 69.313C147.691 71.8639 148.441 74.5618 148.786 77.3231C148.932 78.495 148.985 79.7623 148.356 80.7706C147.971 81.3884 147.37 81.8381 146.782 82.2741C145.903 82.9259 144.931 83.6095 143.829 83.5777C142.728 83.5459 141.496 82.617 140.358 82.9168C139.219 83.2166 138.384 84.9358 138.377 86.0373C138.363 89.0215 142.568 89.3349 144.683 88.5491Z" fill="#FFD180"/>
<g opacity="0.1">
<path opacity="0.1" d="M148.295 80.8235C147.914 81.4466 147.319 81.9002 146.737 82.34C146.155 82.8205 145.501 83.207 144.799 83.4854C145.789 83.419 146.675 82.7982 147.479 82.182C148.061 81.7421 148.657 81.2863 149.037 80.6655C149.658 79.6507 149.607 78.3747 149.463 77.1881C149.121 74.4029 148.379 71.6816 147.259 69.1086C146.141 66.5407 144.611 63.872 145.17 61.1276C145.186 60.9654 145.234 60.8081 145.313 60.6654C145.392 60.5227 145.499 60.3978 145.628 60.2984C145.544 60.2912 145.459 60.2912 145.374 60.2984C144.687 60.3602 144.513 60.8321 144.421 61.2834C143.864 64.0323 145.392 66.6987 146.51 69.2644C147.63 71.8373 148.372 74.5586 148.714 77.3439C148.865 78.5282 148.918 79.8064 148.295 80.8235Z" fill="black"/>
<path opacity="0.1" d="M139.168 85.9848C139.168 84.9585 139.899 83.3985 140.882 82.9312C140.714 82.9271 140.547 82.9463 140.385 82.9885C139.278 83.2886 138.431 85.025 138.424 86.136C138.41 88.9444 142.027 89.4026 144.215 88.8139C142.041 89.13 139.155 88.4863 139.168 85.9848Z" fill="black"/>
</g>
<g opacity="0.5">
<path opacity="0.5" d="M123.212 54.6723C123.212 54.6723 129.452 53.4238 132.572 54.6723C132.572 54.6723 134.444 50.3038 136.315 50.3038C138.187 50.3038 138.81 57.1761 138.81 57.1761L141.304 67.1592C141.304 67.1592 153.159 88.3739 141.304 99.6031C129.45 110.832 110.734 98.3478 110.734 90.2363C110.734 82.1247 114.477 65.2808 114.477 65.2808C114.477 65.2808 118.221 51.5546 119.469 50.3061C120.717 49.0577 123.212 54.6723 123.212 54.6723Z" fill="url(#paint7_linear)"/>
</g>
<path d="M123.417 55.4508C123.417 55.4508 129.369 54.2446 132.345 55.4508C132.345 55.4508 134.13 51.2316 135.917 51.2316C137.704 51.2316 138.297 57.8607 138.297 57.8607L140.678 67.5029C140.678 67.5029 151.988 87.9888 140.678 98.8417C129.367 109.695 111.508 97.6355 111.508 89.8026C111.508 81.9696 115.08 65.696 115.08 65.696C115.08 65.696 118.651 52.4377 119.843 51.2316C121.034 50.0255 123.417 55.4508 123.417 55.4508Z" fill="#FFD180"/>
<g opacity="0.1">
<path opacity="0.1" d="M145.003 78.7458C144.083 74.8474 142.673 71.0812 140.807 67.5371L141.185 69.0536C142.81 72.1343 144.09 75.3846 145.003 78.7458Z" fill="white"/>
<path opacity="0.1" d="M112.503 88.1127C112.503 80.3241 115.405 67.2531 115.405 67.2531C115.405 67.2531 119.004 54.0584 120.205 52.858C121.405 51.6577 123.803 57.057 123.803 57.057C123.803 57.057 129.8 55.8566 132.799 57.057C132.799 57.057 134.6 52.858 136.398 52.858C137.085 52.858 137.614 53.8522 137.985 55.0686C137.619 53.2887 136.996 51.3415 136.02 51.3415C134.222 51.3415 132.421 55.5405 132.421 55.5405C129.422 54.3401 123.425 55.5405 123.425 55.5405C123.425 55.5405 121.027 50.1435 119.827 51.3415C118.626 52.5396 115.027 65.7366 115.027 65.7366C115.027 65.7366 112.125 78.7939 112.125 86.5962C112.123 87.3018 112.503 88.3372 112.503 88.1127Z" fill="white"/>
</g>
<path d="M135.12 67.3411C135.794 67.3411 136.341 66.7943 136.341 66.1198C136.341 65.4452 135.794 64.8984 135.12 64.8984C134.445 64.8984 133.898 65.4452 133.898 66.1198C133.898 66.7943 134.445 67.3411 135.12 67.3411Z" fill="#58555D"/>
<path d="M121.28 67.3411C121.954 67.3411 122.501 66.7943 122.501 66.1198C122.501 65.4452 121.954 64.8984 121.28 64.8984C120.605 64.8984 120.059 65.4452 120.059 66.1198C120.059 66.7943 120.605 67.3411 121.28 67.3411Z" fill="#58555D"/>
<path d="M128.404 68.5618C129.416 68.5618 130.236 68.015 130.236 67.3405C130.236 66.6659 129.416 66.1191 128.404 66.1191C127.392 66.1191 126.572 66.6659 126.572 67.3405C126.572 68.015 127.392 68.5618 128.404 68.5618Z" fill="#58555D"/>
<path d="M144.053 64.5346L138.654 65.7334L138.784 66.3193L144.183 65.1205L144.053 64.5346Z" fill="#FFD180"/>
<path d="M144.66 66.9346L138.662 68.1299L138.779 68.7185L144.778 67.5232L144.66 66.9346Z" fill="#FFD180"/>
<path d="M111.239 62.7582L111.016 63.3154L117.014 65.7144L117.236 65.1572L111.239 62.7582Z" fill="#FFD180"/>
<path d="M109.382 65.7457L109.291 66.3389L117.089 67.539L117.18 66.9458L109.382 65.7457Z" fill="#FFD180"/>
<path opacity="0.1" d="M127.101 75.0756C125.53 75.077 123.962 74.938 122.413 74.66C119.437 74.1258 116.573 73.0532 113.951 71.4908L114.16 70.4806C116.811 71.9767 119.674 73.0247 122.64 73.5853C126.961 74.3567 134.392 74.125 141.944 69.7832L142.448 70.7385C136.966 73.8958 131.194 75.0756 127.101 75.0756Z" fill="black"/>
<path d="M141.933 69.7832C134.356 73.7947 126.921 74.0087 122.596 73.296C119.624 72.778 116.756 71.8098 114.101 70.4275L113.545 71.2792C116.297 72.733 119.277 73.7472 122.368 74.2823C123.92 74.54 125.492 74.6692 127.066 74.6685C131.167 74.6685 136.939 73.5806 142.449 70.668L141.933 69.7832ZM127.259 74.589C127.236 74.589 127.213 74.5824 127.194 74.5701C127.175 74.5577 127.16 74.5401 127.151 74.5196C127.142 74.499 127.14 74.4764 127.144 74.4545C127.149 74.4327 127.16 74.4127 127.176 74.3969C127.193 74.3812 127.213 74.3705 127.236 74.3661C127.259 74.3618 127.282 74.364 127.304 74.3725C127.325 74.381 127.343 74.3955 127.356 74.414C127.369 74.4325 127.376 74.4542 127.376 74.4765C127.375 74.506 127.363 74.534 127.341 74.5546C127.319 74.5753 127.29 74.5868 127.259 74.5868V74.589Z" fill="#FFC061"/>
<path opacity="0.1" d="M126.164 76.2975C126.164 76.6214 126.271 76.932 126.462 77.1611C126.653 77.3901 126.912 77.5188 127.182 77.5188C127.452 77.5188 127.711 77.3901 127.901 77.1611C128.092 76.932 128.2 76.6214 128.2 76.2975C128.2 75.9736 128.092 75.6629 127.901 75.4339C127.711 75.2048 127.452 75.0762 127.182 75.0762C126.912 75.0762 126.653 75.2048 126.462 75.4339C126.271 75.6629 126.164 75.9736 126.164 76.2975ZM127.182 75.6868C127.148 75.6868 127.116 75.6749 127.088 75.6527C127.06 75.6304 127.039 75.5987 127.026 75.5617C127.013 75.5246 127.01 75.4839 127.016 75.4445C127.023 75.4052 127.039 75.3691 127.062 75.3407C127.086 75.3124 127.116 75.2931 127.149 75.2852C127.182 75.2774 127.216 75.2814 127.246 75.2968C127.277 75.3121 127.304 75.3381 127.322 75.3714C127.341 75.4048 127.351 75.444 127.351 75.4841C127.351 75.5374 127.333 75.5886 127.302 75.6266C127.271 75.6646 127.228 75.6862 127.184 75.6868H127.182Z" fill="url(#paint8_linear)"/>
<path d="M126.164 76.0939C126.164 76.3639 126.271 76.6227 126.462 76.8136C126.653 77.0045 126.912 77.1117 127.182 77.1117C127.452 77.1117 127.711 77.0045 127.901 76.8136C128.092 76.6227 128.2 76.3639 128.2 76.0939C128.2 75.824 128.092 75.5651 127.901 75.3743C127.711 75.1834 127.452 75.0762 127.182 75.0762C126.912 75.0762 126.653 75.1834 126.462 75.3743C126.271 75.5651 126.164 75.824 126.164 76.0939ZM127.182 75.5851C127.148 75.5851 127.115 75.5751 127.088 75.5565C127.06 75.5378 127.038 75.5113 127.025 75.4803C127.012 75.4493 127.009 75.4152 127.015 75.3823C127.022 75.3494 127.038 75.3192 127.062 75.2955C127.086 75.2718 127.116 75.2556 127.149 75.2491C127.182 75.2425 127.216 75.2459 127.247 75.2587C127.278 75.2715 127.304 75.2933 127.323 75.3212C127.341 75.3491 127.351 75.3819 127.351 75.4154C127.351 75.4604 127.334 75.5036 127.302 75.5354C127.27 75.5672 127.227 75.5851 127.182 75.5851Z" fill="#494D31"/>
<path d="M140.412 69.7832C124.4 79.4294 115.172 70.489 115.172 70.489L140.412 69.7832Z" fill="#FFD180"/>
<path opacity="0.1" d="M102.146 77.1113C102.146 77.1113 95.7639 80.0169 94.0039 82.8108L102.146 77.1113Z" fill="black"/>
<g opacity="0.5">
<path opacity="0.5" d="M129.314 196.454C135.022 194.54 138.098 188.361 136.183 182.652C134.269 176.944 128.089 173.868 122.381 175.783C116.672 177.697 113.597 183.877 115.511 189.585C117.426 195.293 123.605 198.369 129.314 196.454Z" fill="url(#paint9_linear)"/>
</g>
<path d="M129.093 195.795C134.437 194.003 137.316 188.218 135.524 182.874C133.732 177.531 127.947 174.651 122.603 176.444C117.26 178.236 114.381 184.02 116.173 189.364C117.965 194.708 123.75 197.587 129.093 195.795Z" fill="#FFC061"/>
<g opacity="0.5">
<path opacity="0.5" d="M98.6872 199.79C97.2211 200.282 95.3954 199.932 94.715 198.525C94.3233 197.712 94.4172 196.802 94.5088 195.923C94.6096 194.958 94.6944 194.127 94.1515 193.589C93.871 193.35 93.5407 193.177 93.1848 193.082C92.7266 192.929 92.2318 192.801 91.7599 192.677C90.9185 192.483 90.0965 192.214 89.3043 191.87C87.7465 191.14 86.7501 189.905 86.6401 188.567C86.5462 187.422 87.0983 186.377 87.6251 185.376C88.152 184.375 88.6835 183.381 88.4315 182.398C88.0902 181.072 86.4981 180.442 85.0961 179.878L84.8671 179.791C83.1536 179.104 81.3164 177.654 81.7746 175.794C81.9349 175.146 82.345 174.649 82.7413 174.19C83.0099 173.892 83.2408 173.562 83.4285 173.208C84.047 171.904 83.1994 170.397 82.8214 169.808C82.5259 169.35 82.1754 168.929 81.8364 168.509C81.305 167.894 80.8348 167.228 80.4322 166.521L80.368 166.402C79.438 164.643 79.4197 164.569 79.4975 162.652V162.423L80.3085 162.455V162.684C80.2397 164.423 80.2397 164.423 81.085 166.022L81.1492 166.141C81.5271 166.801 81.9683 167.423 82.4664 167.999C82.8168 168.431 83.1788 168.88 83.4972 169.359C84.4799 170.846 84.7205 172.374 84.1592 173.554C83.94 173.968 83.669 174.353 83.3529 174.699C83.0001 175.12 82.6657 175.519 82.5511 175.986C82.1938 177.432 84.0195 178.582 85.1557 179.035L85.3733 179.122C86.8783 179.718 88.7522 180.46 89.1966 182.185C89.5265 183.466 88.9148 184.62 88.3215 185.738C87.8244 186.677 87.3525 187.571 87.4281 188.487C87.5289 189.717 88.6308 190.654 89.6273 191.124C90.3746 191.446 91.1498 191.699 91.9432 191.88C92.4288 192.006 92.9305 192.139 93.4207 192.301C93.8971 192.432 94.3363 192.672 94.7036 193.002C95.5214 193.813 95.4068 194.924 95.2969 195.998C95.2144 196.8 95.1342 197.558 95.4274 198.163C95.9566 199.258 97.5968 199.419 98.7376 198.88C99.6722 198.44 100.408 197.691 101.186 196.901C101.438 196.644 101.7 196.381 101.965 196.129C103.418 194.755 104.886 194.154 106.215 194.386C106.636 194.473 107.047 194.606 107.44 194.782C107.746 194.916 108.062 195.025 108.386 195.107C109.108 195.236 109.853 195.088 110.47 194.692C111.088 194.296 111.534 193.682 111.719 192.972C111.749 192.837 111.77 192.695 111.793 192.546C111.864 192.07 111.944 191.529 112.324 191.11C112.704 190.691 113.307 190.537 113.735 190.439L118.156 189.417L118.34 190.207L113.918 191.229C113.499 191.325 113.135 191.426 112.926 191.655C112.718 191.884 112.656 192.267 112.599 192.665C112.576 192.821 112.551 192.984 112.516 193.144C112.284 194.064 111.709 194.86 110.91 195.371C110.111 195.882 109.147 196.068 108.214 195.893C107.847 195.801 107.487 195.679 107.14 195.527C106.8 195.373 106.444 195.257 106.079 195.178C104.732 194.949 103.406 195.882 102.529 196.711C102.275 196.951 102.018 197.213 101.771 197.462C100.976 198.269 100.156 199.105 99.0904 199.606C98.9596 199.675 98.825 199.736 98.6872 199.79Z" fill="url(#paint10_linear)"/>
</g>
<path d="M98.8755 199.44C97.4168 199.931 95.6003 199.581 94.9234 198.18C94.5336 197.369 94.6271 196.463 94.7182 195.586C94.8185 194.625 94.9028 193.796 94.3627 193.259C94.0836 193.021 93.755 192.849 93.4008 192.755C92.945 192.602 92.4527 192.474 91.9832 192.351C91.146 192.158 90.3281 191.889 89.5399 191.547C87.99 190.818 86.9985 189.588 86.8891 188.254C86.7957 187.113 87.345 186.072 87.8692 185.074C88.3934 184.076 88.9222 183.085 88.6715 182.106C88.3319 180.784 86.7478 180.156 85.3529 179.594L85.125 179.508C83.4202 178.823 81.5922 177.377 82.0481 175.523C82.2076 174.877 82.6156 174.382 83.0099 173.925C83.2772 173.628 83.5069 173.299 83.6937 172.946C84.3091 171.646 83.4658 170.144 83.0897 169.557C82.7957 169.101 82.447 168.681 82.1096 168.263C81.5809 167.649 81.113 166.985 80.7125 166.281L80.6487 166.162C79.7233 164.409 79.7051 164.336 79.7826 162.425V162.196L80.5894 162.228V162.457C80.521 164.19 80.521 164.19 81.3621 165.783L81.4259 165.902C81.8019 166.56 82.2408 167.18 82.7364 167.754C83.0851 168.185 83.4452 168.633 83.7621 169.11C84.7398 170.592 84.9792 172.115 84.4207 173.29C84.2026 173.703 83.933 174.087 83.6185 174.432C83.2675 174.852 82.9347 175.249 82.8207 175.715C82.4652 177.156 84.2817 178.302 85.4122 178.754L85.6287 178.841C87.1262 179.434 88.9906 180.174 89.4327 181.893C89.7609 183.17 89.1524 184.321 88.5621 185.435C88.0675 186.371 87.598 187.261 87.6732 188.175C87.7735 189.401 88.8698 190.334 89.8612 190.802C90.6048 191.124 91.3761 191.376 92.1655 191.556C92.6487 191.682 93.1478 191.814 93.6356 191.976C94.1095 192.106 94.5465 192.346 94.912 192.675C95.7256 193.483 95.6117 194.59 95.5023 195.661C95.4202 196.46 95.3404 197.216 95.6322 197.819C96.1587 198.91 97.7906 199.07 98.9256 198.533C99.8556 198.095 100.587 197.348 101.362 196.561C101.613 196.305 101.873 196.042 102.137 195.791C103.582 194.421 105.043 193.823 106.365 194.054C106.784 194.141 107.193 194.274 107.584 194.449C107.889 194.583 108.204 194.691 108.526 194.773C109.244 194.901 109.985 194.753 110.599 194.359C111.214 193.965 111.658 193.353 111.842 192.645C111.872 192.51 111.892 192.369 111.915 192.22C111.986 191.745 112.065 191.207 112.444 190.789C112.822 190.371 113.421 190.218 113.848 190.12L118.247 189.102L118.429 189.889L114.03 190.908C113.613 191.003 113.25 191.104 113.043 191.332C112.836 191.561 112.774 191.942 112.717 192.339C112.694 192.494 112.669 192.656 112.635 192.816C112.404 193.733 111.832 194.527 111.037 195.036C110.241 195.545 109.282 195.731 108.355 195.556C107.989 195.465 107.631 195.342 107.286 195.191C106.947 195.038 106.593 194.922 106.231 194.844C104.89 194.615 103.571 195.545 102.698 196.371C102.445 196.611 102.189 196.871 101.943 197.12C101.152 197.924 100.336 198.757 99.2766 199.257C99.1466 199.326 99.0126 199.387 98.8755 199.44Z" fill="#FFC061"/>
<path opacity="0.2" d="M125.35 178.914C125.35 178.914 130.815 178.076 133.492 185.808" stroke="black" stroke-miterlimit="10"/>
<path opacity="0.2" d="M119.094 191.508C119.094 191.508 115.259 185.506 122.093 178.888" stroke="black" stroke-miterlimit="10"/>
<path opacity="0.2" d="M120.748 189.066C120.748 189.066 118.198 186.06 120.872 183.366" stroke="black" stroke-miterlimit="10"/>
<path opacity="0.2" d="M124.535 182.145C124.535 182.145 127.034 183.18 127.385 187.844" stroke="black" stroke-miterlimit="10"/>
<path opacity="0.2" d="M127.385 176.445C127.385 176.445 131.701 177.24 134.713 182.959" stroke="black" stroke-miterlimit="10"/>
<path opacity="0.2" d="M122.094 178.48C122.094 178.48 123.994 177.185 125.758 177.862" stroke="black" stroke-miterlimit="10"/>
<path opacity="0.2" d="M123.723 191.616C123.723 191.616 126.34 193.4 133.086 188.251" stroke="black" stroke-miterlimit="10"/>
<path opacity="0.2" d="M123.314 194.765C123.314 194.765 124.9 196.418 128.2 195.013" stroke="black" stroke-miterlimit="10"/>
<path opacity="0.2" d="M118.022 180.109C117.454 181.172 117.072 182.376 116.902 183.639C116.731 184.903 116.777 186.198 117.036 187.437" stroke="black" stroke-miterlimit="10"/>
<path opacity="0.2" d="M120.474 191.101C120.474 191.101 120.241 192.461 122.093 193.136" stroke="black" stroke-miterlimit="10"/>
<path opacity="0.2" d="M134.307 189.065C134.307 189.065 134.185 192.138 132.271 192.322" stroke="black" stroke-miterlimit="10"/>
<path opacity="0.2" d="M124.943 193.481C125.975 193.624 127.025 193.52 128.013 193.179C129 192.837 129.9 192.265 130.643 191.508" stroke="black" stroke-miterlimit="10"/>
<path opacity="0.2" d="M127.793 182.959C127.793 182.959 129.138 183.983 129.005 185.809" stroke="black" stroke-miterlimit="10"/>
<path opacity="0.2" d="M122.181 184.994C122.181 184.994 121.722 187.036 122.908 188.251" stroke="black" stroke-miterlimit="10"/>
<path opacity="0.2" d="M123.314 184.587C123.314 184.587 124.891 186.225 124.462 187.437" stroke="black" stroke-miterlimit="10"/>
<path d="M63.8692 94.3146C63.8692 94.3146 59.9805 93.2695 58.2317 92.3102C56.4829 91.351 46.2262 89.4943 43.212 94.9752C40.1978 100.456 44.7132 107.782 45.9756 108.582C47.238 109.382 61.9562 98.5214 61.9562 98.5214L71.8127 103.443L74.8109 95.855L63.8692 94.3146Z" fill="#3F3D56"/>
<path d="M108.981 96.3289L77.6364 96.2574C73.4804 96.2479 69.6278 99.9765 69.0314 104.585L68.8751 105.793C68.2787 110.402 71.1643 114.146 75.3203 114.155L106.665 114.227C110.821 114.236 114.673 110.508 115.27 105.899L115.426 104.691C116.023 100.082 113.137 96.3384 108.981 96.3289Z" fill="#3F3D56"/>
<path opacity="0.1" d="M101.604 104.237C101.377 105.998 100.687 107.718 99.619 109.183C99.256 109.679 98.8539 110.141 98.4185 110.563C97.5623 111.393 96.5874 112.051 95.5498 112.499C94.5122 112.947 93.4325 113.175 92.3727 113.171L62.1213 113.102C59.9809 113.097 58.0501 112.15 56.7538 110.468C55.4575 108.786 54.9018 106.507 55.209 104.134C55.5161 101.76 56.661 99.4854 58.3918 97.8104C60.1225 96.1354 62.2973 95.1971 64.4378 95.202L94.6911 95.271C96.8312 95.2759 98.7617 96.2232 100.058 97.9047C101.354 99.5861 101.91 101.864 101.604 104.237Z" fill="black"/>
<path d="M59.1807 82.2026L60.1088 84.3862L64.3828 86.197L68.2752 79.8177L65.6981 77.6288L61.3833 75.5913L58.5591 77.2946L59.1807 82.2026Z" fill="#FBBEBE"/>
<path d="M116.411 86.0436C116.411 86.0436 109.802 87.8188 106.867 91.1713C105.884 92.2917 104.529 93.0969 103.161 93.6705L103.771 88.6002C105.577 85.7527 107.433 82.5851 107.433 82.5851C107.519 82.4295 108.315 80.2434 108.315 80.2434C109.647 79.1524 108.84 75.3222 108.84 75.3222C108.84 75.3222 109.866 72.9031 109.522 72.4322C109.178 71.9613 109.661 70.7137 110.061 70.1673C110.46 69.6209 110.478 68.9174 110.534 68.45C110.59 67.9825 110.142 67.2753 109.323 66.883C108.503 66.4906 109.512 65.8683 110.064 65.712C110.616 65.5558 110.928 64.0739 110.423 63.2907C109.917 62.5075 110.64 62.0423 111.075 61.1842C111.51 60.3262 110.088 60.4774 110.088 60.4774L111.039 52.5788C111.039 52.5788 110.949 50.0001 111.095 45.4673C111.242 40.9346 109.765 40.4621 109.765 40.4621C108.979 40.1632 108.222 39.7946 107.499 39.3593C106.736 38.9124 105.934 38.5441 105.1 38.2582C105.1 38.2582 103.302 38.2524 101.899 37.7239C100.495 37.1954 99.7394 37.1561 99.7394 37.1561L99.5158 37.0168C97.8408 35.9461 96.624 34.1821 96.0735 32.0264C96.0455 31.9181 96.0213 31.8097 95.9965 31.7058C96.4557 31.2003 96.878 30.6523 97.2579 30.0689L97.2594 30.0559C97.2498 30.136 97.2402 30.216 97.2305 30.2961C97.2266 30.3286 97.2225 30.3632 97.2186 30.3957C97.1954 30.5883 97.1722 30.7809 97.149 30.9735L97.1467 30.9929C98.471 28.8172 101.613 28.3296 102.205 25.8419C102.232 25.7286 102.252 25.6144 102.267 25.5L102.268 25.4849C102.278 25.4027 102.288 25.3183 102.299 25.2339C102.343 24.5391 102.221 23.8459 102.267 23.1447C102.278 22.9437 102.302 22.7418 102.339 22.5409L102.338 22.5539C102.708 20.6219 104.165 18.9445 104.964 17.0702C105.18 16.566 105.343 16.0416 105.452 15.5087L105.454 15.4936C105.488 15.3335 105.517 15.1712 105.541 15.0089C105.545 14.97 105.55 14.9289 105.555 14.8899C105.568 14.7774 105.581 14.6735 105.596 14.5523C105.698 13.554 105.623 12.5699 105.375 11.6606C105.127 10.7513 104.712 9.93611 104.154 9.26534C103.22 8.19068 101.898 7.51309 101.331 6.11057C101.066 5.46024 100.991 4.6893 100.692 4.06051C100.131 2.87233 98.8958 2.38553 97.6922 2.21057C96.4887 2.03562 95.2242 2.08778 94.1077 1.63817C93.3147 1.31951 92.6294 0.756574 91.8248 0.472514C90.9455 0.185603 89.9733 0.229928 89.0389 0.59954C88.1044 0.969152 87.2524 1.64635 86.5972 2.54022C86.0655 3.28753 85.6689 4.18249 85.0023 4.76483C83.6375 5.95971 81.63 5.43359 80.3943 6.81075C79.7159 7.5684 79.5243 8.60259 79.468 9.65886C79.4664 9.67184 79.4649 9.68483 79.4633 9.69781C79.4537 9.77788 79.4568 9.86016 79.4544 9.94241C79.4497 9.98136 79.445 10.0203 79.4406 10.0571C79.4362 10.0939 79.4307 10.1393 79.4388 10.1805C79.4305 10.5593 79.4317 10.936 79.4289 11.2997C79.4222 11.356 79.4268 11.4101 79.4256 11.4664L79.4183 11.8063C79.4084 11.8885 79.4097 11.9708 79.4072 12.053C79.4048 12.1353 79.3942 12.2695 79.3889 12.3604C79.3835 12.4513 79.3696 12.5205 79.3727 12.6028C79.1451 15.487 78.2731 18.3559 76.842 20.9293C75.5576 23.222 73.8048 25.3335 73.2352 27.897C73.1441 28.3172 73.0831 28.7406 73.053 29.1629C73.0471 29.2127 73.0411 29.2624 73.0351 29.3122C73.0291 29.362 73.028 29.4637 73.0245 29.5395C73.021 29.6153 73.0183 29.7148 73.0172 29.8014C73.0112 29.8512 73.0164 29.901 73.016 29.9508C73.0152 30.0655 73.0163 30.1803 73.019 30.2972L73.0214 30.3708C73.0755 32.1202 73.4691 33.836 73.5752 35.6029C73.6162 36.2546 73.6165 36.9151 73.5758 37.5795C73.5745 37.5837 73.5739 37.5882 73.5743 37.5924C73.5594 37.8089 73.544 38.0145 73.5241 38.2266C73.4897 38.5122 73.455 38.8001 73.4199 39.0922C72.8869 39.3163 72.346 39.4997 71.8011 39.6411C70.8507 39.7939 67.7787 42.5982 67.8926 43.3086C68.0065 44.0191 65.993 48.9311 65.9359 49.0803L61.538 67.0344C61.538 67.0344 60.1911 68.3592 60.4585 69.2195C60.7259 70.0799 60.1037 71.5629 60.1037 71.5629C60.1037 71.5629 57.9767 72.5713 58.3467 73.1982C58.7168 73.825 58.3727 74.9951 57.9731 75.7753C57.5735 76.5555 56.903 77.9605 57.6816 78.1969C58.4603 78.4332 57.4244 81.4801 57.4244 81.4801C57.4244 81.4801 60.2813 81.1128 59.8449 83.0511C59.7035 83.6676 61.5321 85.3708 62.2981 86.0531L61.1744 95.3887C60.0805 95.0149 58.8005 94.5301 58.0029 94.0643C56.3847 93.1216 46.8765 91.2937 44.0961 96.6773C41.3156 102.061 45.513 109.264 46.6842 110.05C46.6842 110.05 47.7525 111.146 47.9531 111.695C48.1536 112.243 49.6665 112.404 49.6665 112.404C49.6665 112.404 51.161 113.275 51.5042 113.737C51.7569 114.084 54.0841 114.99 56.8856 115.703C56.8856 115.703 53.8045 121.928 57.6691 121.427C61.5338 120.927 63.6477 118.758 66.3289 118.767C67.4003 118.77 69.4113 118.601 71.4393 118.4C71.93 118.505 72.4113 118.643 72.8807 118.814C73.9596 119.23 75.0836 119.523 76.2384 119.691C76.2384 119.691 79.0108 121.575 80.666 121.11C80.803 121.068 80.9349 120.995 81.0536 120.895L81.0908 120.895C81.3917 120.812 81.7634 120.465 82.1695 119.94C84.1401 120.184 86.3857 120.529 87.189 120.917C88.7561 121.665 100.728 120.676 100.728 120.676C100.728 120.676 108.361 120.876 110.462 121.654C112.562 122.431 112.823 113.792 108.893 112.807C107.843 112.552 106.759 112.422 105.657 112.42C105.978 112.085 106.277 111.724 106.553 111.34C108.029 111.192 109.005 111.099 109.005 111.099C109.005 111.099 113.131 108.924 115.49 107.603C117 106.72 118.401 105.562 119.63 104.178C119.63 104.178 121.729 102.778 122.594 102.24C123.458 101.701 124.074 99.9 124.074 99.9C132.05 83.9817 116.411 86.0436 116.411 86.0436ZM101.474 65.9957C101.506 65.7339 101.537 65.4699 101.569 65.208C101.764 65.3862 101.698 65.6652 101.474 65.9935L101.474 65.9957ZM100.872 71.5207C101.005 71.7679 101.134 71.9935 101.225 72.1713C101.577 72.8219 100.762 73.1223 100.688 74.198C100.672 74.4383 100.65 74.7738 100.624 75.146C100.729 73.5942 100.816 72.3172 100.873 71.5185L100.872 71.5207Z" fill="url(#paint11_linear)"/>
<path d="M90.0893 105.197C90.0893 105.197 85.3063 106.495 81.55 106.427C77.7937 106.36 59.1367 114.402 59.1367 114.402C59.1367 114.402 55.7723 120.782 59.9756 120.264C64.1789 119.746 66.4806 117.534 69.3957 117.542C72.3108 117.549 81.627 116.453 81.627 116.453L91.3879 109.268L90.0893 105.197Z" fill="#FBBEBE"/>
<path d="M92.7306 48.8427L84.5511 50.5778L84.0202 50.6921C84.0202 50.6921 77.9682 48.797 77.7798 48.639C77.5914 48.481 72.9786 39.8307 72.9786 39.8307C72.9786 39.8307 75.8612 39.8746 78.3151 38.4148C78.4036 38.3626 78.4907 38.306 78.5775 38.2516C79.6604 37.58 80.5503 36.54 81.0951 35.3093C81.1524 35.1805 81.2045 35.0473 81.2554 34.9075C81.6297 33.8633 81.8061 32.5976 81.6775 31.0642C81.3614 27.4177 83.2811 26.4199 85.6446 26.5147C89.0591 26.6521 93.4233 29.069 93.4233 29.069C93.3279 30.2954 93.4232 31.5016 93.7049 32.6344C93.7286 32.7395 93.755 32.8533 93.7851 32.954C94.3628 35.1141 95.6331 36.8767 97.3785 37.9402L97.612 38.0809C97.848 38.2172 98.0985 38.347 98.3604 38.4637C104.099 41.062 92.7306 48.8427 92.7306 48.8427Z" fill="#FBBEBE"/>
<path opacity="0.1" d="M93.1264 33.149C91.3565 35.0716 89.1254 36.3537 86.802 36.7833C84.4786 37.2128 82.2021 36.7641 80.3492 35.5112C80.8379 34.39 81.0812 32.994 80.9368 31.2547C80.1867 22.3169 92.7692 29.2536 92.7692 29.2536C92.6634 30.5994 92.7845 31.9204 93.1264 33.149Z" fill="black"/>
<path d="M95.6082 25.3882C95.3512 27.4817 94.5799 29.532 93.383 31.3029C92.9929 31.8837 92.5599 32.4291 92.0897 32.932C90.103 35.0726 87.5529 36.36 84.9843 36.5193C84.7914 36.5339 84.5863 36.5397 84.3877 36.5391C82.4437 36.5329 80.625 35.8706 79.1614 34.6359C77.6978 33.4013 76.6552 31.6498 76.1654 29.6029C75.6755 27.5561 75.7605 25.3057 76.4095 23.1365C77.0585 20.9673 78.2423 18.9766 79.8114 17.4162C81.3805 15.8559 83.2642 14.7958 85.2245 14.3702C87.1848 13.9446 89.1335 14.1725 90.8242 15.0251C92.515 15.8777 93.8718 17.3167 94.7232 19.1602C95.5745 21.0037 95.8821 23.1688 95.6071 25.3817L95.6082 25.3882Z" fill="#FBBEBE"/>
<path opacity="0.1" d="M93.5848 48.7991L85.073 50.582L84.5205 50.6994C84.5205 50.6994 78.2259 48.7602 78.03 48.5983C77.8341 48.4364 73.0436 39.5724 73.0436 39.5724C73.0436 39.5724 76.0426 39.6159 78.5972 38.1183C78.6893 38.0647 78.78 38.0067 78.8703 37.9509C79.5038 38.8491 81.6288 41.3897 85.4881 41.3815C85.9832 41.3829 86.4829 41.3445 86.9831 41.2665C88.1721 41.0722 89.3622 40.9475 90.5497 40.8272C92.8272 40.573 96.3563 39.8287 98.443 37.6418L98.6858 37.7859C98.9312 37.9255 99.1917 38.0584 99.4641 38.1779C105.42 40.8178 93.5848 48.7991 93.5848 48.7991Z" fill="black"/>
<path d="M101.327 70.9477C101.181 72.6579 99.8862 91.9211 99.8862 91.9211L65.9051 91.812L67.6383 79.6863L69.0308 69.9876L69.4862 66.8046L71.1251 55.7785L70.2629 54.7845L65.5763 49.3875C65.6341 49.2442 67.694 44.3405 67.5777 43.6489C67.4614 42.9573 70.5997 40.1633 71.5735 40.01C72.1337 39.8681 72.69 39.6847 73.2386 39.461C74.9254 38.8143 77.1849 37.8826 77.4029 38.0311C77.7109 38.2364 81.0964 37.893 81.2335 37.8782C81.2335 37.8782 83.2482 41.5212 87.6555 41.5136C88.1196 41.5124 88.5878 41.4718 89.0561 41.392C90.1734 41.2043 91.2918 41.084 92.4091 40.9572C94.6573 40.7014 98.1999 39.9194 100.108 37.5475C100.108 37.5475 100.883 37.587 102.316 38.1111C103.749 38.6352 105.589 38.6433 105.589 38.6433C106.441 38.9275 107.261 39.2936 108.041 39.738C108.781 40.17 109.556 40.5357 110.359 40.8322C110.359 40.8322 111.867 41.3023 111.718 45.8078C111.57 50.3133 111.666 52.8786 111.666 52.8786L102.578 60.8506C102.578 60.8506 101.473 69.2309 101.327 70.9477Z" fill="#A4A1C1"/>
<path opacity="0.1" d="M115.605 105.749C115.382 107.482 114.7 109.175 113.645 110.616C109.285 111.026 99.6226 111.991 97.5475 112.601C94.9988 113.346 90.2083 112.024 89.6848 111.876L89.6361 111.862C89.6361 111.862 89.0968 108.653 88.9075 106.6C88.827 105.667 88.8102 104.974 88.95 104.923C89.4043 104.766 93.526 103.579 93.3641 104.265C93.2022 104.952 105.935 99.1544 105.935 99.1544L105.639 104.258C106.655 105.799 115.893 103.535 115.605 105.749Z" fill="black"/>
<path d="M84.1212 118.954C84.1212 118.954 91.7804 119.574 93.5204 120.367C95.2604 121.159 108.543 120.089 108.543 120.089C108.543 120.089 117.012 120.29 119.342 121.114C121.671 121.937 121.972 112.735 117.612 111.696C113.253 110.657 106.732 112.165 106.732 112.165C106.732 112.165 99.7227 111.117 98.8727 110.987C98.0227 110.858 92.2953 111.034 92.2953 111.034L84.1212 118.954Z" fill="#FBBEBE"/>
<path opacity="0.1" d="M53.4492 96.499C53.4492 96.499 63.5992 97.5707 66.1872 99.5042L53.4492 96.499Z" fill="black"/>
<path opacity="0.1" d="M53.9531 94.1211C54.1087 94.1818 58.5651 94.859 58.3939 95.3445C58.2228 95.83 53.9531 94.1211 53.9531 94.1211Z" fill="black"/>
<path opacity="0.1" d="M47.6437 105.943L47.912 108.36C47.912 108.36 49.0739 109.489 49.2917 110.053C49.5096 110.616 51.1607 110.783 51.1607 110.783C51.1607 110.783 52.7913 111.672 53.1662 112.155C53.541 112.637 58.0659 114.18 62.4192 114.835C66.7724 115.489 74.8303 116.716 76.4921 117.364C77.6705 117.791 78.898 118.09 80.159 118.258C80.159 118.258 83.1795 120.198 84.9874 119.72C86.7954 119.243 90.9145 110.476 90.9145 110.476C90.9145 110.476 79.8131 107.472 79.5744 106.505C79.3356 105.538 68.868 101.006 68.868 101.006L62.3014 101.161L47.6437 105.943Z" fill="black"/>
<path d="M47.1639 106.292L47.4295 108.685C47.4295 108.685 48.5825 109.802 48.7983 110.36C49.0141 110.918 50.6498 111.083 50.6498 111.083C50.6498 111.083 52.2651 111.963 52.6341 112.443C53.0031 112.923 57.4903 114.447 61.8008 115.096C66.1113 115.745 74.0978 116.961 75.7441 117.603C76.911 118.023 78.1265 118.319 79.375 118.486C79.375 118.486 82.3693 120.404 84.1604 119.932C85.9515 119.46 90.0326 110.784 90.0326 110.784C90.0326 110.784 79.0332 107.808 78.7987 106.851C78.5642 105.894 63.4402 98.6053 63.4402 98.6053L58.5676 97.3173L47.1639 106.292Z" fill="#3F3D56"/>
<path d="M64.0551 48.247L62.9275 49.0116L59.1172 66.6386C59.1172 66.6386 57.9149 67.9394 58.1634 68.7812C58.4119 69.6231 57.8638 71.0803 57.8638 71.0803C57.8638 71.0803 55.9555 72.0722 56.2944 72.6869C56.6332 73.3015 56.3331 74.4506 55.9798 75.2155C55.6265 75.9804 55.0344 77.3582 55.7378 77.5921C56.4413 77.8259 55.5345 80.8098 55.5345 80.8098C55.5345 80.8098 58.1058 80.4486 57.7293 82.3484C57.5756 83.116 60.2662 85.5745 60.2662 85.5745C60.2662 85.5745 57.7132 77.8212 65.0894 78.9165L66.177 74.5536C66.177 74.5536 67.0703 72.0976 66.5046 71.3363C65.9388 70.575 67.0977 66.929 67.0977 66.929L68.8507 51.098L64.0551 48.247Z" fill="#A4A1C1"/>
<path opacity="0.1" d="M60.2949 70.9424C60.418 71.2396 65.2586 71.8603 65.4543 72.8287C65.65 73.797 60.2949 70.9424 60.2949 70.9424Z" fill="black"/>
<path opacity="0.1" d="M58.3526 75.306C58.3526 75.306 59.2864 73.0628 60.7597 73.4698C62.233 73.8767 58.3526 75.306 58.3526 75.306Z" fill="black"/>
<path opacity="0.1" d="M57.385 78.4667C57.385 78.4667 58.8782 75.4956 60.3731 75.7298C61.8681 75.9641 57.385 78.4667 57.385 78.4667Z" fill="black"/>
<path d="M112.722 79.4579L111.852 82.7087C111.852 82.7087 105.754 92.9249 104.859 93.0761C103.964 93.2272 100.04 86.2386 100.04 86.2386L99.594 79.4132L104.764 78.3302L107.312 75.7941C107.312 75.7941 112.888 76.4347 112.722 79.4579Z" fill="#FBBEBE"/>
<path d="M111.848 52.0347L113.319 53.4959L112.533 61.2382C112.533 61.2382 113.808 61.0876 113.422 61.9317C113.036 62.7758 112.391 63.2308 112.853 64.0002C113.315 64.7696 113.046 66.2234 112.551 66.3763C112.056 66.5293 111.155 67.138 111.894 67.5242C112.633 67.9105 113.045 68.6004 112.998 69.0615C112.951 69.5226 112.942 70.2112 112.587 70.7465C112.232 71.2817 111.809 72.5076 112.121 72.9698C112.433 73.432 111.533 75.8041 111.533 75.8041C111.533 75.8041 112.292 79.5651 111.103 80.6341C111.103 80.6341 110.406 82.7773 110.33 82.9316C110.33 82.9316 111.844 75.4725 103.982 78.6044C103.982 78.6044 104.132 75.7601 104.187 74.707C104.242 73.6538 104.976 73.3471 104.652 72.7175C104.329 72.0879 103.506 70.6416 104.002 70.2613C104.499 69.8809 104.412 69.1898 104.285 68.651C104.159 68.1121 103.526 68.1123 104.166 67.4621C104.806 66.8118 105.208 66.2017 104.902 65.8939C104.596 65.5862 104.113 64.585 104.625 64.1275C105.138 63.6699 105.829 57 105.829 57C105.829 57 108.744 47.194 111.848 52.0347Z" fill="#A4A1C1"/>
<path opacity="0.1" d="M109.926 65.2987C109.926 65.2987 112.88 64.429 112.863 65.3033C112.846 66.1776 109.926 65.2987 109.926 65.2987Z" fill="black"/>
<path opacity="0.1" d="M106.569 67.4472C106.569 67.4472 110.643 66.2899 111.026 67.1913C111.409 68.0927 106.569 67.4472 106.569 67.4472Z" fill="black"/>
<path opacity="0.1" d="M105.7 69.4951C105.7 69.4951 111.707 68.5505 111.919 69.9432C112.131 71.3358 105.7 69.4951 105.7 69.4951Z" fill="black"/>
<path opacity="0.1" d="M106.629 72.0957C106.837 72.1557 112.159 72.586 112.119 73.725C112.08 74.8639 106.629 72.0957 106.629 72.0957Z" fill="black"/>
<path d="M107.209 74.5316L66.6974 74.4161C65.5442 74.4128 64.4752 75.4463 64.3097 76.7243L61.2661 100.226C61.1006 101.504 61.9012 102.543 63.0544 102.547L103.566 102.662C104.719 102.665 105.788 101.632 105.954 100.354L108.997 76.8517C109.163 75.5736 108.362 74.5349 107.209 74.5316Z" fill="#606060"/>
<path d="M84.9075 90.3372C85.7783 90.34 86.5841 89.5379 86.7074 88.5458C86.8307 87.5536 86.2248 86.7471 85.354 86.7443C84.4832 86.7415 83.6774 87.5436 83.5541 88.5357C83.4308 89.5278 84.0368 90.3344 84.9075 90.3372Z" fill="#E7EFFD"/>
<path opacity="0.1" d="M70.2402 58.0156C70.2402 58.0156 74.2065 61.8786 78.0171 58.9458C78.0171 58.9458 72.1237 59.5359 70.2402 58.0156Z" fill="black"/>
<path opacity="0.1" d="M93.3477 59.5303C93.3477 59.5303 97.3122 63.3912 101.123 60.4582C101.123 60.4582 95.2312 61.0507 93.3477 59.5303Z" fill="black"/>
<path opacity="0.1" d="M95.7565 25.0596C95.5266 27.1327 94.8175 29.1631 93.7108 30.9169C93.9808 27.8318 93.7282 24.7429 92.6304 22.1616C91.6264 19.7895 88.2292 15.646 85.4463 16.789C85.1549 16.9113 84.8827 17.1111 84.6518 17.3722C84.4209 17.6334 84.2378 17.9486 84.1174 18.2922C83.7183 19.5011 84.4308 20.016 84.8182 20.9712C85.4709 22.6264 85.5786 24.586 85.1221 26.5023C85.0594 26.7603 84.9862 27.0159 84.9026 27.2683C84.2714 29.1656 83.0705 31.3346 83.8828 32.8942C84.4502 33.9727 85.8869 34.3607 85.9375 35.7004C85.9417 35.8269 85.9332 35.9555 85.9122 36.0836C85.7642 36.9897 85.036 37.7863 84.6569 38.6745C84.2119 39.7218 84.2798 40.7643 84.5013 41.818C84.7881 43.1929 85.3365 44.5837 85.3442 46.0352C85.352 47.4866 84.8325 48.833 84.2454 50.1943C83.6895 51.4845 83.0672 52.7638 82.756 54.1088C82.1611 56.6652 82.6043 59.6255 81.0471 61.6404C80.8845 61.8842 80.6566 62.0542 80.4121 62.1143C79.5481 62.2191 79.8968 60.3661 79.2855 59.7418C79.2375 60.8183 79.1807 61.9423 78.7474 62.9487C78.3141 63.9551 77.3748 64.8092 76.5117 64.6362L76.4791 62.2178C75.7985 62.931 75.0146 63.4761 74.1825 63.8146C74.7838 61.2449 75.8128 58.7838 77.2039 56.5888C74.8182 57.886 73.1955 60.7061 71.7322 63.3587C70.8201 65.0161 69.8642 66.8262 69.9103 68.6805C69.9286 69.4365 70.1164 70.1563 70.0897 70.9164C70.0631 71.6765 69.7355 72.5649 69.118 72.8514C68.5793 73.1016 68.0173 72.7983 67.7057 72.2934L67.6521 72.2006C67.6228 72.1445 67.5955 72.0863 67.5701 72.0281C67.5196 71.911 67.4769 71.7885 67.4422 71.6615C67.3343 71.2059 67.2683 70.7315 67.2453 70.2461L67.2304 70.0307C66.9914 66.8837 66.8222 63.6378 67.6136 60.4575C67.9052 59.287 68.3274 58.1255 68.4253 56.9371C68.4739 56.267 68.4353 55.6057 68.311 54.977C67.9895 53.2144 67.1715 51.5945 66.8016 49.8189C66.7968 49.8068 66.7934 49.7937 66.7917 49.7801C66.5984 48.8405 66.5825 47.6668 67.2203 46.9152C67.5486 46.5264 67.9975 46.3319 68.3841 46.0575C69.5883 45.1893 70.2687 43.5355 70.6507 41.9561C70.8228 41.2442 70.95 40.5247 71.0312 39.8038C72.6031 39.1629 74.7084 38.2394 74.9125 38.3865C75.201 38.5899 78.36 38.2491 78.488 38.2345C79.5122 37.5745 80.4506 36.6021 81.0164 35.1761C81.068 35.0493 81.1148 34.918 81.1605 34.7804C79.841 33.8458 78.8 32.4719 78.1436 30.7984C77.4871 29.1249 77.2387 27.2118 77.4235 25.2537C77.6084 23.2957 78.2199 21.3629 79.1959 19.652C80.1718 17.9411 81.4773 16.5133 82.9794 15.5141C84.4814 14.5149 86.1264 13.98 87.7467 13.9638C89.367 13.9476 90.9047 14.4507 92.2033 15.4219C93.5019 16.3931 94.5149 17.7976 95.1392 19.4925C95.7634 21.1874 95.9766 23.112 95.7571 25.0704L95.7565 25.0596Z" fill="black"/>
<path d="M84.855 26.9494C84.2239 28.8463 83.0281 31.0149 83.8402 32.5763C84.4065 33.6547 85.8401 34.0404 85.887 35.3819C85.9245 36.4586 85.0428 37.3428 84.6138 38.3533C83.591 40.7679 85.2875 43.1503 85.2993 45.7104C85.3133 48.4878 83.3625 51.0113 82.7202 53.7845C82.1272 56.3404 82.5701 59.298 81.0168 61.3147C80.8552 61.5595 80.6276 61.7298 80.3833 61.7885C79.5212 61.8955 79.8687 60.0428 79.259 59.4165C79.2113 60.4928 79.1548 61.6166 78.7227 62.6228C78.2906 63.629 77.354 64.4807 76.4927 64.31L76.46 61.8899C75.7812 62.6032 74.9992 63.1482 74.1691 63.4864C74.7684 60.9182 75.7938 58.4584 77.18 56.2641C74.8002 57.5611 73.1836 60.3807 71.7245 63.0307C70.8131 64.6877 69.8614 66.4996 69.906 68.3536C69.9243 69.1093 70.1121 69.8269 70.0854 70.589C70.0587 71.3511 69.7326 72.235 69.1163 72.5236C68.5539 72.7909 67.9498 72.4316 67.6538 71.873C67.3577 71.3144 67.2988 70.6037 67.2461 69.9167C66.9986 66.7035 66.8035 63.3872 67.6089 60.1387C67.8999 58.9662 68.3209 57.8049 68.4181 56.6189C68.6325 54.0209 67.2907 51.8785 66.7912 49.459C66.5965 48.5175 66.5821 47.3462 67.2182 46.5947C67.5456 46.2061 67.9934 46.0116 68.3791 45.7373C69.5787 44.867 70.2587 43.2157 70.6378 41.6366C71.0468 39.9295 71.2014 38.1878 71.094 36.4965C70.9316 33.9662 70.1861 31.4921 70.7271 28.9252C71.2583 26.3993 72.9179 24.3205 74.131 22.0616C75.6935 19.1378 76.5381 15.8261 76.5533 12.5637C76.5581 11.0458 76.4654 9.28863 77.4405 8.15714C78.6111 6.80021 80.5251 7.31885 81.8192 6.14318C82.4513 5.57037 82.8253 4.68667 83.3282 3.95196C83.9527 3.06938 84.7621 2.40195 85.6495 2.03804C86.5368 1.67412 87.4601 1.6309 88.2972 1.91408C89.0645 2.19431 89.7197 2.74762 90.4761 3.06227C91.5422 3.49634 92.7399 3.45286 93.8919 3.62669C95.0439 3.80052 96.2168 4.28016 96.7572 5.44671C97.0427 6.06772 97.1196 6.82369 97.3743 7.46612C97.921 8.84585 99.1829 9.51309 100.076 10.5731C100.838 11.514 101.321 12.7431 101.465 14.107C101.608 15.471 101.406 16.9094 100.883 18.2428C100.051 20.279 98.4532 22.0781 98.3303 24.2394C98.2787 25.1284 98.4881 26.0011 98.2938 26.881C97.7392 29.3316 94.7516 29.8106 93.4981 31.9553C93.9737 28.4344 93.8224 24.8061 92.5681 21.8501C91.5661 19.4785 88.1765 15.3337 85.4003 16.4765C85.1099 16.5993 84.8386 16.7993 84.6084 17.0603C84.3782 17.3214 84.1955 17.6362 84.0749 17.9794C83.6772 19.1859 84.3879 19.7028 84.7745 20.6579C85.1426 21.5901 85.3394 22.6276 85.3533 23.7085C85.3671 24.7895 85.1977 25.8917 84.855 26.9494Z" fill="#452E43"/>
<path d="M103.669 95.1794C103.669 95.1794 110.393 94.6442 113.554 91.2469C116.715 87.8496 123.816 86.0479 123.816 86.0479C123.816 86.0479 140.617 83.9563 132.003 100.092C132.003 100.092 131.339 101.912 130.409 102.463C129.478 103.015 127.22 104.435 127.22 104.435L102.158 101.91L103.669 95.1794Z" fill="#3F3D56"/>
<path d="M129.18 101.546L128.394 103.664C127.037 105.109 125.494 106.318 123.833 107.237C121.235 108.617 116.692 110.889 116.692 110.889C116.692 110.889 100.899 112.32 98.1564 113.128C95.4136 113.936 90.118 112.377 90.118 112.377C90.118 112.377 88.961 105.45 89.4208 105.287C89.8806 105.124 94.0674 103.913 93.9055 104.613C93.7435 105.312 106.676 99.3843 106.676 99.3843L129.18 101.546Z" fill="#3F3D56"/>
<path opacity="0.1" d="M125.991 85.1318C125.991 85.1318 130.162 94.2009 124.685 94.9821C119.208 95.7632 121.707 87.386 121.707 87.386C121.707 87.386 121.159 84.9005 119.826 84.7607" fill="black"/>
<path opacity="0.1" d="M131.03 84.9121C131.03 84.9121 126.071 93.5757 131.457 94.8311C136.842 96.0864 135.097 87.5304 135.097 87.5304C135.097 87.5304 135.862 85.1045 137.204 85.0816" fill="black"/>
<path d="M125.507 84.878C125.507 84.878 129.679 93.9471 124.202 94.7282C118.725 95.5094 121.224 87.1321 121.224 87.1321C121.224 87.1321 120.676 84.6397 119.348 84.5" fill="#FFD180"/>
<path d="M131.417 84.5293C131.417 84.5293 126.449 93.1952 131.843 94.4414C137.238 95.6876 135.483 87.1408 135.483 87.1408C135.483 87.1408 136.249 84.7148 137.591 84.6919" fill="#FFD180"/>
<path opacity="0.5" d="M122.539 92.8428H122.445V94.6135H122.539V92.8428Z" fill="#58555D"/>
<path opacity="0.5" d="M124.055 92.8428H123.961V94.6135H124.055V92.8428Z" fill="#58555D"/>
<path opacity="0.5" d="M123.233 92.2793H123.139V94.7556H123.233V92.2793Z" fill="#58555D"/>
<path opacity="0.5" d="M132.389 92.4648H132.295V94.2356H132.389V92.4648Z" fill="#58555D"/>
<path opacity="0.5" d="M133.904 92.4648H133.811V94.2356H133.904V92.4648Z" fill="#58555D"/>
<path opacity="0.5" d="M133.082 91.8994H132.988V94.3757H133.082V91.8994Z" fill="#58555D"/>
<defs>
<linearGradient id="paint0_linear" x1="111.102" y1="162.127" x2="111.102" y2="41.6933" gradientUnits="userSpaceOnUse">
<stop stop-color="#808080" stop-opacity="0.25"/>
<stop offset="0.54" stop-color="#808080" stop-opacity="0.12"/>
<stop offset="1" stop-color="#808080" stop-opacity="0.1"/>
</linearGradient>
<linearGradient id="paint1_linear" x1="17418.1" y1="-101752" x2="11900.6" y2="-109597" gradientUnits="userSpaceOnUse">
<stop stop-color="#808080" stop-opacity="0.25"/>
<stop offset="0.54" stop-color="#808080" stop-opacity="0.12"/>
<stop offset="1" stop-color="#808080" stop-opacity="0.1"/>
</linearGradient>
<linearGradient id="paint2_linear" x1="2549.34" y1="-14747.2" x2="2450.87" y2="-14887.3" gradientUnits="userSpaceOnUse">
<stop stop-color="#808080" stop-opacity="0.25"/>
<stop offset="0.54" stop-color="#808080" stop-opacity="0.12"/>
<stop offset="1" stop-color="#808080" stop-opacity="0.1"/>
</linearGradient>
<linearGradient id="paint3_linear" x1="2976.23" y1="-14513.6" x2="2877.73" y2="-14653.7" gradientUnits="userSpaceOnUse">
<stop stop-color="#808080" stop-opacity="0.25"/>
<stop offset="0.54" stop-color="#808080" stop-opacity="0.12"/>
<stop offset="1" stop-color="#808080" stop-opacity="0.1"/>
</linearGradient>
<linearGradient id="paint4_linear" x1="2326.89" y1="-14255.6" x2="2228.39" y2="-14395.7" gradientUnits="userSpaceOnUse">
<stop stop-color="#808080" stop-opacity="0.25"/>
<stop offset="0.54" stop-color="#808080" stop-opacity="0.12"/>
<stop offset="1" stop-color="#808080" stop-opacity="0.1"/>
</linearGradient>
<linearGradient id="paint5_linear" x1="2729.98" y1="-14004.6" x2="2631.47" y2="-14144.7" gradientUnits="userSpaceOnUse">
<stop stop-color="#808080" stop-opacity="0.25"/>
<stop offset="0.54" stop-color="#808080" stop-opacity="0.12"/>
<stop offset="1" stop-color="#808080" stop-opacity="0.1"/>
</linearGradient>
<linearGradient id="paint6_linear" x1="12737" y1="10722.5" x2="12737" y2="6407.69" gradientUnits="userSpaceOnUse">
<stop stop-color="#808080" stop-opacity="0.25"/>
<stop offset="0.54" stop-color="#808080" stop-opacity="0.12"/>
<stop offset="1" stop-color="#808080" stop-opacity="0.1"/>
</linearGradient>
<linearGradient id="paint7_linear" x1="24360.4" y1="22819" x2="24360.4" y2="10114.1" gradientUnits="userSpaceOnUse">
<stop stop-color="#808080" stop-opacity="0.25"/>
<stop offset="0.54" stop-color="#808080" stop-opacity="0.12"/>
<stop offset="1" stop-color="#808080" stop-opacity="0.1"/>
</linearGradient>
<linearGradient id="paint8_linear" x1="127.184" y1="77.5188" x2="127.184" y2="75.0762" gradientUnits="userSpaceOnUse">
<stop stop-color="white"/>
<stop offset="1"/>
</linearGradient>
<linearGradient id="paint9_linear" x1="22315.8" y1="-14573.1" x2="21655.9" y2="-16540.6" gradientUnits="userSpaceOnUse">
<stop stop-color="#808080" stop-opacity="0.25"/>
<stop offset="0.54" stop-color="#808080" stop-opacity="0.12"/>
<stop offset="1" stop-color="#808080" stop-opacity="0.1"/>
</linearGradient>
<linearGradient id="paint10_linear" x1="35676.4" y1="-25692" x2="33510.4" y2="-32150.5" gradientUnits="userSpaceOnUse">
<stop stop-color="#808080" stop-opacity="0.25"/>
<stop offset="0.54" stop-color="#808080" stop-opacity="0.12"/>
<stop offset="1" stop-color="#808080" stop-opacity="0.1"/>
</linearGradient>
<linearGradient id="paint11_linear" x1="81.7365" y1="121.571" x2="82.1325" y2="0.246036" gradientUnits="userSpaceOnUse">
<stop stop-color="#808080" stop-opacity="0.25"/>
<stop offset="0.54" stop-color="#808080" stop-opacity="0.12"/>
<stop offset="1" stop-color="#808080" stop-opacity="0.1"/>
</linearGradient>
</defs>
</svg>
